<svg width="69" height="68" viewBox="0 0 69 68" fill="none" xmlns="http://www.w3.org/2000/svg">
<rect x="0.5" width="68" height="68" rx="13.8" fill="white"/>
<path d="M49.1668 47.273H32.085C31.2375 47.273 30.5406 46.5762 30.5406 45.7287C30.5406 44.8812 31.2375 44.1843 32.085 44.1843H49.1668C50.0143 44.1843 50.7112 44.8812 50.7112 45.7287C50.7112 46.595 50.0143 47.273 49.1668 47.273Z" fill="#24A19C"/>
<path d="M49.1668 35.4267H32.085C31.2375 35.4267 30.5406 34.7299 30.5406 33.8824C30.5406 33.0349 31.2375 32.3381 32.085 32.3381H49.1668C50.0143 32.3381 50.7112 33.0349 50.7112 33.8824C50.7112 34.7299 50.0143 35.4267 49.1668 35.4267Z" fill="#24A19C"/>
<path d="M49.1668 23.5619H32.085C31.2375 23.5619 30.5406 22.8651 30.5406 22.0176C30.5406 21.1701 31.2375 20.4732 32.085 20.4732H49.1668C50.0143 20.4732 50.7112 21.1701 50.7112 22.0176C50.7112 22.8651 50.0143 23.5619 49.1668 23.5619Z" fill="#24A19C"/>
<path d="M20.7473 26.1232C20.333 26.1232 19.9375 25.9537 19.655 25.6712L17.9411 23.9574C17.3385 23.3547 17.3385 22.3754 17.9411 21.7727C18.5438 21.17 19.5231 21.17 20.1258 21.7727L20.7473 22.3942L24.7776 18.3639C25.3803 17.7612 26.3596 17.7612 26.9623 18.3639C27.565 18.9665 27.565 19.9459 26.9623 20.5485L21.8396 25.6712C21.5383 25.9537 21.1616 26.1232 20.7473 26.1232Z" fill="#24A19C"/>
<path d="M20.7473 37.9882C20.3518 37.9882 19.9563 37.8375 19.655 37.5362L17.9411 35.8224C17.3385 35.2197 17.3385 34.2404 17.9411 33.6377C18.5438 33.035 19.5231 33.035 20.1258 33.6377L20.7473 34.2592L24.7776 30.2289C25.3803 29.6262 26.3596 29.6262 26.9623 30.2289C27.565 30.8315 27.565 31.8109 26.9623 32.4135L21.8396 37.5362C21.5383 37.8375 21.1428 37.9882 20.7473 37.9882Z" fill="#24A19C"/>
<path d="M20.7473 49.2882C20.3518 49.2882 19.9563 49.1375 19.655 48.8362L17.9411 47.1223C17.3385 46.5197 17.3385 45.5403 17.9411 44.9377C18.5438 44.335 19.5231 44.335 20.1258 44.9377L20.7473 45.5592L24.7776 41.5288C25.3803 40.9262 26.3596 40.9262 26.9623 41.5288C27.565 42.1315 27.565 43.1108 26.9623 43.7135L21.8396 48.8362C21.5383 49.1375 21.1428 49.2882 20.7473 49.2882Z" fill="#24A19C"/>
</svg>
